EMG_gait_6.mot
nRows=17
nColumns=25

name EMG_gait_6.mot
datacolumns 25
datarows 17
range 0.0010000000 0.0170000000
endheader
Time	HamL_r	TA_r	PerL_r	GL_r	HamM_r	Sol_r	VL_r	VM_r	PerB_l	TA_l	PerL_l	GL_l	GM_l	Sol_l	VL_l	VM_l	AddL_l	RF_l	TFL_l	GluMed_l	HamL_l	HamM_l	GluMed_r	RF_r
        0.0010000000	       -0.3956014228	       -0.2908631759	       -0.4897104235	       -0.3451019456	       -0.5259527757	        0.0829253028	       -0.0679868141	       -0.2389341927	       -0.0298290797	        0.0352380329	        0.0196113336	        0.0132439761	        0.0140628485	       -0.0073893360	       -0.0401015739	       -0.0219083067	       -0.1502554463	       -0.0463631227	       -0.0288494047	       -0.0163473456	       -0.0181042745	       -0.0272665508	       -0.0085327327	       -0.0420625351	
        0.0020000000	       -0.3573417521	       -0.2550523020	       -0.4493434153	       -0.3147621713	       -0.4795285950	        0.1045121915	       -0.0617497567	       -0.2212473885	       -0.0253743539	        0.0541445639	        0.0262365868	        0.0141769332	        0.0196875163	       -0.0019386871	       -0.0364210840	       -0.0188644022	       -0.1379032421	       -0.0415694131	       -0.0257157978	       -0.0150081239	       -0.0159133041	       -0.0277111004	       -0.0012184711	       -0.0359603225	
        0.0030000000	       -0.3189452663	       -0.2192796101	       -0.4093182623	       -0.2844393251	       -0.4333226855	        0.1262196837	       -0.0555235459	       -0.2033469882	       -0.0209748543	        0.0728315607	        0.0329226837	        0.0151117009	        0.0253559950	        0.0034029102	       -0.0327671519	       -0.0158323498	       -0.1255543808	       -0.0368120661	       -0.0225763233	       -0.0136422848	       -0.0136331756	       -0.0280340549	        0.0062011081	       -0.0297405292	
        0.0040000000	       -0.2804957281	       -0.1836212503	       -0.3697076572	       -0.2541783138	       -0.3874111789	        0.1480175877	       -0.0493146523	       -0.1852592095	       -0.0166374727	        0.0912642639	        0.0396547820	        0.0160462141	        0.0310557974	        0.0086270922	       -0.0291456853	       -0.0128193139	       -0.1132250030	       -0.0320986453	       -0.0194338199	       -0.0122510323	       -0.0112639465	       -0.0282222668	        0.0137159825	       -0.0234088268	
        0.0050000000	       -0.2420770200	       -0.1481529189	       -0.3305827121	       -0.2240234690	       -0.3418692471	        0.1698758861	       -0.0431293436	       -0.1670105258	       -0.0123688875	        0.1094085050	        0.0464178551	        0.0169783990	        0.0367742344	        0.0137259142	       -0.0255624953	       -0.0098324913	       -0.1009309597	       -0.0274365681	       -0.0162909840	       -0.0108355794	       -0.0088057503	       -0.0282622212	        0.0213158758	       -0.0169711048	
        0.0060000000	       -0.2037727206	       -0.1129494779	       -0.2920126400	       -0.1940183651	       -0.2967708138	        0.1917648690	       -0.0369736659	       -0.1486275369	       -0.0081755406	        0.1272308296	        0.0531967643	        0.0179061835	        0.0424984694	        0.0186918798	       -0.0220232762	       -0.0068790805	       -0.0886877527	       -0.0228330796	       -0.0131503554	       -0.0093971403	       -0.0062587910	       -0.0281400658	        0.0289902935	       -0.0104334545	
        0.0070000000	       -0.1656656852	       -0.0780845755	       -0.2540644460	       -0.1642056458	       -0.2521882727	        0.2136552621	       -0.0308534276	       -0.1301368420	       -0.0040636158	        0.1446986175	        0.0599763322	        0.0188275069	        0.0482155705	        0.0235179664	       -0.0185335852	       -0.0039662511	       -0.0765104782	       -0.0182952263	       -0.0100143042	       -0.0079369231	       -0.0036233373	       -0.0278416430	        0.0367285586	       -0.0038021528	
        0.0080000000	       -0.1278376357	       -0.0436302736	       -0.2168026311	       -0.1346268608	       -0.2081922156	        0.2355183493	       -0.0247741866	       -0.1115649158	       -0.0000390184	        0.1617801992	        0.0667414143	        0.0197403297	        0.0539125631	        0.0281976493	       -0.0150988226	       -0.0011011135	       -0.0644137733	       -0.0138298325	       -0.0068850199	       -0.0064561228	       -0.0008997176	       -0.0273525251	        0.0445198464	        0.0029163542	
        0.0090000000	       -0.0903687614	       -0.0096566829	       -0.1802889097	       -0.1053223118	       -0.1648511703	        0.2573260875	       -0.0187412383	       -0.0929379888	        0.0038926430	        0.1784449694	        0.0734769691	        0.0206426433	        0.0595764816	        0.0327249223	       -0.0117242134	        0.0017093123	       -0.0524117667	       -0.0094434762	       -0.0037645010	       -0.0049559142	        0.0019116844	       -0.0266580528	        0.0523532193	        0.0097154662	
        0.0100000000	       -0.0533373366	        0.0237683895	       -0.1445819441	       -0.0763309114	       -0.1222313503	        0.2790512149	       -0.0127596081	       -0.0742819323	        0.0077260734	        0.1946634944	        0.0801681263	        0.0215324797	        0.0651944185	        0.0370943148	       -0.0084147890	        0.0044581270	       -0.0405180336	       -0.0051424683	       -0.0006545466	       -0.0034374455	        0.0048104333	       -0.0257433760	        0.0602176602	        0.0165884452	
        0.0110000000	       -0.0168193559	        0.0565797788	       -0.1097370975	       -0.0476900527	       -0.0803964173	        0.3006673492	       -0.0068340454	       -0.0556221491	        0.0114563057	        0.2104076162	        0.0868002520	        0.0224079205	        0.0707535727	        0.0413009069	       -0.0051753698	        0.0071385826	       -0.0287455551	       -0.0009328315	        0.0024432502	       -0.0019018328	        0.0077960451	       -0.0245934979	        0.0681021045	        0.0235284297	
        0.0120000000	        0.0191118094	        0.0887152835	       -0.0758062072	       -0.0194354919	       -0.0394072575	        0.3221490776	       -0.0009690203	       -0.0369834703	        0.0150787141	        0.2256505498	        0.0933590104	        0.0232671058	        0.0762412960	        0.0453403409	       -0.0020105492	        0.0097441126	       -0.0171066826	        0.0031797172	        0.0055275072	       -0.0003501542	        0.0108679895	       -0.0231933219	        0.0759954724	        0.0305284503	
        0.0130000000	        0.0543857316	        0.1201159664	       -0.0428373803	        0.0083987567	        0.0006782278	        0.3434720360	        0.0048312770	       -0.0183900591	        0.0185890246	        0.2403669749	        0.0998304233	        0.0241082426	        0.0816451367	        0.0492088291	        0.0010753220	        0.0122683616	       -0.0056131068	        0.0071897845	        0.0085970573	        0.0012165547	        0.0140256912	       -0.0215277013	        0.0838866985	        0.0375814432	
        0.0140000000	        0.0889352225	        0.1507264342	       -0.0108748131	        0.0357805132	        0.0398053163	        0.3646129791	        0.0105629338	        0.0001346778	        0.0219833245	        0.2545331208	        0.1062009250	        0.0249296129	        0.0869528824	        0.0529031597	        0.0040781496	        0.0147052146	        0.0057241674	        0.0110923153	        0.0116509495	        0.0027973050	        0.0172685301	       -0.0195814909	        0.0917647616	        0.0446802646	
        0.0150000000	        0.1226966037	        0.1804950917	        0.0200413649	        0.0626795109	        0.0779226436	        0.3855498394	        0.0162223111	        0.0185681719	        0.0252580693	        0.2681268457	        0.1124574141	        0.0257295814	        0.0921526002	        0.0564206989	        0.0069941093	        0.0170488258	        0.0168948411	        0.0148826065	        0.0146884493	        0.0043911578	        0.0205958417	       -0.0173396019	        0.0996187130	        0.0518177037	
        0.0160000000	        0.1556099501	        0.2093743724	        0.0498752212	        0.0890674632	        0.1149823650	        0.4062617767	        0.0218060360	        0.0368887649	        0.0284100883	        0.2811277076	        0.1185873028	        0.0265066025	        0.0972326759	        0.0597593898	        0.0098196588	        0.0192936460	        0.0278893365	        0.0185563186	        0.0177090370	        0.0059972273	        0.0240069146	       -0.0147870588	        0.1074377032	        0.0589864956	
        0.0170000000	        0.1876193069	        0.2373209417	        0.0785951257	        0.1149181162	        0.1509403011	        0.4267292179	        0.0273109933	        0.0550757719	        0.0314365877	        0.2935170293	        0.1245785610	        0.0272592273	        0.1021818514	        0.0629177492	        0.0125515482	        0.0214344503	        0.0386988059	        0.0221094857	        0.0207124047	        0.0076146827	        0.0275009893	       -0.0119090581	        0.1152110079	        0.0661793342	
